<?xml version="1.0" encoding="UTF-8" standalone="no"?>
<!DOCTYPE svg PUBLIC "-//W3C//DTD SVG 1.1//EN" "http://www.w3.org/Graphics/SVG/1.1/DTD/svg11.dtd">
<svg width="100%" height="100%" viewBox="0 0 189 158" version="1.1" xmlns="http://www.w3.org/2000/svg" xmlns:xlink="http://www.w3.org/1999/xlink" xml:space="preserve" xmlns:serif="http://www.serif.com/" style="fill-rule:evenodd;clip-rule:evenodd;stroke-linejoin:round;stroke-miterlimit:2;">
    <g transform="matrix(1,0,0,1,-138.125,-124.673)">
        <g transform="matrix(0.267217,0,0,0.273645,138.826,126.675)">
            <path d="M350,0C437.434,0 516.54,39.555 566.5,102.01C608.137,99.928 643.527,104.092 666.426,116.584C674.754,120.748 681,126.994 685.16,133.236C697.652,149.888 699.734,168.627 691.406,189.443C683.078,206.095 670.59,224.834 651.851,243.568C614.378,281.041 551.925,320.595 472.811,360.148C385.377,399.703 295.861,430.929 218.831,445.5C341.651,489.219 529.021,418.438 624.781,339.33C624.781,339.33 624.781,349.74 608.129,391.373C564.41,491.299 464.489,559.993 349.989,559.993C262.555,559.993 185.529,520.438 133.489,457.983C91.852,460.065 56.462,455.901 35.645,443.409C27.317,439.245 18.993,432.999 14.829,426.757C2.337,410.105 2.337,391.366 10.665,370.55C16.911,353.898 29.399,335.159 50.22,316.425C87.693,281.034 148.064,239.398 229.26,201.925C314.612,160.288 406.21,129.062 483.24,114.491C370.82,70.772 168.89,145.718 75.21,222.741C75.21,222.741 81.456,187.35 106.437,141.55C156.398,56.198 245.917,-0.01 350.007,-0.01L350,0ZM647.7,149.89C635.208,143.644 616.473,139.48 593.575,139.48C606.067,164.46 616.473,189.441 622.72,216.507L624.802,216.507C639.376,199.855 649.782,187.362 656.029,174.87C658.111,166.542 658.111,160.296 656.029,156.136C653.947,154.054 651.865,151.972 647.701,149.89L647.7,149.89ZM77.29,343.5L75.208,343.5C60.634,360.152 50.228,372.645 46.063,385.137C41.899,393.465 41.899,399.711 46.063,403.871C46.063,405.953 50.227,408.035 52.309,410.117C64.801,416.363 83.536,420.527 108.516,420.527C93.942,397.629 83.536,370.566 77.289,343.5L77.29,343.5Z" style="fill:url(#_Linear1);stroke:rgb(255,252,252);stroke-width:14.79px;"/>
        </g>
        <g id="norechtech">
        </g>
        <g transform="matrix(0.272285,0,0,0.277731,96.3033,17.0248)">
            <g id="norechtech1" serif:id="norechtech">
                <text id="nt" x="350.806px" y="725.806px" style="font-family:'Future-Earth', 'Future Earth';font-size:203.6px;fill:rgb(208,51,0);stroke:white;stroke-width:4px;">N<tspan x="514.042px " y="725.806px ">T</tspan></text>
            </g>
        </g>
    </g>
    <defs>
        <linearGradient id="_Linear1" x1="0" y1="0" x2="1" y2="0" gradientUnits="userSpaceOnUse" gradientTransform="matrix(3.16877e-14,505.344,-517.499,3.09434e-14,350.632,26.2851)"><stop offset="0" style="stop-color:rgb(255,79,0);stop-opacity:1"/><stop offset="0.15" style="stop-color:rgb(255,41,0);stop-opacity:1"/><stop offset="0.33" style="stop-color:rgb(255,11,0);stop-opacity:1"/><stop offset="1" style="stop-color:rgb(255,0,0);stop-opacity:1"/></linearGradient>
    </defs>
</svg>
