<?xml version="1.0" encoding="UTF-8" standalone="no"?>
<!DOCTYPE svg PUBLIC "-//W3C//DTD SVG 1.1//EN" "http://www.w3.org/Graphics/SVG/1.1/DTD/svg11.dtd">
<svg width="100%" height="100%" viewBox="0 0 1592 167" version="1.1" xmlns="http://www.w3.org/2000/svg" xmlns:xlink="http://www.w3.org/1999/xlink" xml:space="preserve" xmlns:serif="http://www.serif.com/" style="fill-rule:evenodd;clip-rule:evenodd;stroke-linejoin:round;stroke-miterlimit:2;">
    <g transform="matrix(1,0,0,1,-180.383,-471.769)">
        <g transform="matrix(0.267217,0,0,0.273645,181.084,473.772)">
            <path d="M350,0C437.434,0 516.54,39.555 566.5,102.01C608.137,99.928 643.527,104.092 666.426,116.584C674.754,120.748 681,126.994 685.16,133.236C697.652,149.888 699.734,168.627 691.406,189.443C683.078,206.095 670.59,224.834 651.851,243.568C614.378,281.041 551.925,320.595 472.811,360.148C385.377,399.703 295.861,430.929 218.831,445.5C341.651,489.219 529.021,418.438 624.781,339.33C624.781,339.33 624.781,349.74 608.129,391.373C564.41,491.299 464.489,559.993 349.989,559.993C262.555,559.993 185.529,520.438 133.489,457.983C91.852,460.065 56.462,455.901 35.645,443.409C27.317,439.245 18.993,432.999 14.829,426.757C2.337,410.105 2.337,391.366 10.665,370.55C16.911,353.898 29.399,335.159 50.22,316.425C87.693,281.034 148.064,239.398 229.26,201.925C314.612,160.288 406.21,129.062 483.24,114.491C370.82,70.772 168.89,145.718 75.21,222.741C75.21,222.741 81.456,187.35 106.437,141.55C156.398,56.198 245.917,-0.01 350.007,-0.01L350,0ZM647.7,149.89C635.208,143.644 616.473,139.48 593.575,139.48C606.067,164.46 616.473,189.441 622.72,216.507L624.802,216.507C639.376,199.855 649.782,187.362 656.029,174.87C658.111,166.542 658.111,160.296 656.029,156.136C653.947,154.054 651.865,151.972 647.701,149.89L647.7,149.89ZM77.29,343.5L75.208,343.5C60.634,360.152 50.228,372.645 46.063,385.137C41.899,393.465 41.899,399.711 46.063,403.871C46.063,405.953 50.227,408.035 52.309,410.117C64.801,416.363 83.536,420.527 108.516,420.527C93.942,397.629 83.536,370.566 77.289,343.5L77.29,343.5Z" style="fill:url(#_Linear1);stroke:rgb(255,252,252);stroke-width:14.79px;"/>
        </g>
        <g id="norechtech" transform="matrix(1,0,0,1,110,189)">
            <g transform="matrix(1.65858,-3.82417e-05,-3.82417e-05,1.66341,-201.674,-597.879)">
                <path d="M303.157,623.22L1116.8,622.817C1116.82,622.817 1116.83,622.8 1116.83,622.779C1116.83,622.757 1116.82,622.74 1116.8,622.739L303.266,609.433C299.45,609.403 296.328,612.467 296.298,616.272C296.268,620.077 299.341,623.19 303.157,623.22Z" style="fill:white;"/>
            </g>
            <g id="tech" transform="matrix(1,0,0,1,-28,0)">
                <g transform="matrix(1,0,0,1,804.792,-320.073)">
                    <path d="M733.833,725.806L733.833,613.351L767.733,613.351L767.733,656.65L839.808,656.65L839.808,613.351L873.808,613.351L873.808,725.806L839.808,725.806L839.808,682.609L767.733,682.609L767.733,725.806L733.833,725.806Z" style="fill:none;fill-rule:nonzero;stroke:white;stroke-width:4px;"/>
                </g>
                <g transform="matrix(1,0,0,1,804.792,-320.073)">
                    <path d="M644.452,725.806C635.041,725.806 627.055,722.426 620.493,715.666C613.866,708.906 610.552,700.76 610.552,691.228L610.552,647.929C610.552,638.398 613.866,630.252 620.493,623.491C627.121,616.731 635.107,613.351 644.452,613.351L733.527,613.351L733.527,639.31L661.452,639.31C656.746,639.31 652.737,641 649.423,644.38C646.109,647.76 644.452,651.85 644.452,656.65L644.452,682.609C644.452,687.341 646.109,691.431 649.423,694.879C652.737,698.191 656.746,699.847 661.452,699.847L733.527,699.847L733.527,725.806L644.452,725.806Z" style="fill:none;fill-rule:nonzero;stroke:white;stroke-width:4px;"/>
                </g>
                <g transform="matrix(1,0,0,1,804.792,-320.073)">
                    <path d="M520.509,725.806C511.098,725.806 503.112,722.426 496.55,715.666C489.923,708.906 486.609,700.76 486.609,691.228L486.609,647.929C486.609,638.398 489.923,630.252 496.55,623.491C503.178,616.731 511.164,613.351 520.509,613.351L609.584,613.351L609.584,639.31L528.959,639.31C526.64,639.31 524.651,640.155 522.995,641.845C521.338,643.535 520.509,645.563 520.509,647.929L520.509,656.65L607.496,656.65L607.496,682.609L520.509,682.609L520.509,691.228C520.509,693.594 521.338,695.656 522.995,697.414C524.651,699.036 526.64,699.847 528.959,699.847L611.672,699.847L611.672,725.806L520.509,725.806Z" style="fill:none;fill-rule:nonzero;stroke:white;stroke-width:4px;"/>
                </g>
                <g transform="matrix(1,0,0,1,804.792,-320.073)">
                    <path d="M397.431,725.806L397.431,639.31L342.356,639.31L342.356,613.351L486.506,613.351L486.506,639.31L431.332,639.31L431.332,725.806L397.431,725.806Z" style="fill:none;fill-rule:nonzero;stroke:white;stroke-width:4px;"/>
                </g>
            </g>
            <g transform="matrix(0.905109,0,0,0.905109,73.8932,-145.422)">
                <circle cx="1154.84" cy="547.362" r="22.097" style="fill:url(#_Linear2);"/>
            </g>
            <g transform="matrix(1,0,0,1,-59.2076,-320.073)">
                <g transform="matrix(1,0,0,1.02,0,-14.5161)">
                    <text x="350.806px" y="725.806px" style="font-family:'Future-Earth', 'Future Earth';font-size:203.6px;fill:rgb(208,51,0);stroke:white;stroke-width:3.96px;">N<tspan x="505.288px " y="725.806px ">O</tspan></text>
                </g>
                <g transform="matrix(1,0,0,1.02,0,-14.5161)">
                    <text x="653.407px" y="725.806px" style="font-family:'Future-Earth', 'Future Earth';font-size:203.6px;fill:rgb(208,51,0);stroke:white;stroke-width:3.96px;">R</text>
                </g>
                <g transform="matrix(1,0,0,1.02,0,-14.5161)">
                    <text x="795.623px" y="725.806px" style="font-family:'Future-Earth', 'Future Earth';font-size:203.6px;fill:rgb(208,51,0);stroke:white;stroke-width:3.96px;">E<tspan x="916.105px 1055.67px " y="725.806px 725.806px ">HC</tspan></text>
                </g>
            </g>
        </g>
        <g id="norechtech1" serif:id="norechtech">
        </g>
    </g>
    <defs>
        <linearGradient id="_Linear1" x1="0" y1="0" x2="1" y2="0" gradientUnits="userSpaceOnUse" gradientTransform="matrix(3.16877e-14,505.344,-517.499,3.09434e-14,350.632,26.2851)"><stop offset="0" style="stop-color:rgb(255,79,0);stop-opacity:1"/><stop offset="0.15" style="stop-color:rgb(255,41,0);stop-opacity:1"/><stop offset="0.33" style="stop-color:rgb(255,11,0);stop-opacity:1"/><stop offset="1" style="stop-color:rgb(255,0,0);stop-opacity:1"/></linearGradient>
        <linearGradient id="_Linear2" x1="0" y1="0" x2="1" y2="0" gradientUnits="userSpaceOnUse" gradientTransform="matrix(16.129,44.1935,-44.1935,16.129,1148.38,525.265)"><stop offset="0" style="stop-color:white;stop-opacity:1"/><stop offset="0.67" style="stop-color:rgb(245,245,245);stop-opacity:1"/><stop offset="0.85" style="stop-color:rgb(216,216,216);stop-opacity:1"/><stop offset="1" style="stop-color:rgb(179,179,179);stop-opacity:1"/></linearGradient>
    </defs>
</svg>
