<?xml version="1.0" encoding="UTF-8" standalone="no"?>
<!DOCTYPE svg PUBLIC "-//W3C//DTD SVG 1.1//EN" "http://www.w3.org/Graphics/SVG/1.1/DTD/svg11.dtd">
<svg width="100%" height="100%" viewBox="0 0 873 177" version="1.1" xmlns="http://www.w3.org/2000/svg" xmlns:xlink="http://www.w3.org/1999/xlink" xml:space="preserve" xmlns:serif="http://www.serif.com/" style="fill-rule:evenodd;clip-rule:evenodd;stroke-linejoin:round;stroke-miterlimit:2;">
    <g transform="matrix(1,0,0,1,-470.924,-476.882)">
        <g transform="matrix(0.849193,0,0,0.849193,96.5172,38.8066)">
            <text x="640.006px" y="723.871px" style="font-family:'Future-Earth', 'Future Earth';font-size:96px;fill:rgb(20,16,16);">BA<tspan x="788.975px 852.959px " y="723.871px 723.871px ">CK</tspan> TO ST<tspan x="1250.88px 1330.85px " y="723.871px 723.871px ">AR</tspan>T</text>
        </g>
        <g transform="matrix(0.996995,0,0,0.996995,315.907,6.58938)">
            <path d="M900.806,598.71L927.806,471.71L981.606,471.71C989.873,471.71 997.106,472.543 1003.31,474.21C1009.51,475.876 1014.64,478.643 1018.71,482.51C1022.77,486.376 1025.84,491.443 1027.91,497.71C1029.97,503.976 1031.01,511.643 1031.01,520.71C1031.01,530.443 1029.77,539.976 1027.31,549.31C1024.84,558.643 1020.74,566.976 1015.01,574.31C1009.27,581.643 1001.77,587.543 992.506,592.01C983.24,596.476 971.806,598.71 958.206,598.71L900.806,598.71ZM955.606,584.71C960.006,584.71 963.906,582.876 967.306,579.21C970.706,575.543 973.64,570.876 976.106,565.21C978.573,559.543 980.64,553.276 982.306,546.41C983.973,539.543 985.306,532.91 986.306,526.51C987.306,520.11 988.04,514.376 988.506,509.31C988.973,504.243 989.206,500.643 989.206,498.51C989.206,494.376 988.373,491.143 986.706,488.81C985.04,486.476 982.14,485.31 978.006,485.31L968.406,485.31L947.006,584.71L955.606,584.71Z" style="fill-rule:nonzero;"/>
        </g>
        <g transform="matrix(0.996995,0,0,0.996995,330.52,6.58938)">
            <path d="M878.606,598.71L831.806,598.71L809.606,506.91L790.006,598.71L772.006,598.71L799.006,471.71L846.806,471.71L867.806,564.71L887.606,471.71L906.006,471.71L878.606,598.71Z" style="fill-rule:nonzero;"/>
        </g>
        <g transform="matrix(0.996995,0,0,0.996995,345.324,6.58938)">
            <path d="M750.006,598.71L706.806,598.71L733.806,471.71L777.206,471.71L750.006,598.71Z" style="fill-rule:nonzero;"/>
        </g>
        <g transform="matrix(0.996995,0,0,0.996995,352.803,6.58938)">
            <path d="M533.606,471.71L582.406,471.71L585.806,558.31L619.206,471.71L658.806,471.71L664.006,558.31L697.606,471.71L718.606,471.71L669.206,598.71L624.206,598.71L620.006,526.91L590.006,598.71L542.006,598.71L533.606,471.71Z" style="fill-rule:nonzero;"/>
        </g>
        <g transform="matrix(0.996995,0,0,0.996995,350.454,6.58938)">
            <path d="M444.406,471.71L528.606,471.71L525.406,486.91L484.606,486.91L476.206,525.51L510.406,525.51L507.206,540.51L473.006,540.51L463.806,583.31L504.606,583.31L501.606,598.71L417.406,598.71L444.406,471.71Z" style="fill-rule:nonzero;"/>
        </g>
        <g transform="matrix(0.996995,0,0,0.996995,350.074,6.58938)">
            <path d="M415.406,501.91C415.406,509.776 413.206,517.043 408.806,523.71C404.406,530.376 397.14,535.443 387.006,538.91L410.206,598.71L365.606,598.71L348.006,543.31L345.806,543.31L334.006,598.71L290.806,598.71L317.806,471.71L370.406,471.71C376.54,471.71 382.34,472.076 387.806,472.81C393.273,473.543 398.04,475.01 402.106,477.21C406.173,479.41 409.406,482.476 411.806,486.41C414.206,490.343 415.406,495.51 415.406,501.91ZM357.806,530.51C361.273,530.51 364.24,529.343 366.706,527.01C369.173,524.676 371.173,521.843 372.706,518.51C374.24,515.176 375.34,511.61 376.006,507.81C376.673,504.01 377.006,500.71 377.006,497.91C377.006,494.443 376.406,491.476 375.206,489.01C374.006,486.543 371.406,485.31 367.406,485.31L358.406,485.31L348.406,530.51L357.806,530.51Z" style="fill-rule:nonzero;"/>
        </g>
        <g id="Large-Triangles" serif:id="Large Triangles" transform="matrix(0.987004,0,0,0.987004,3.15926,6.19769)">
            <g transform="matrix(9.78953e-17,-1.59875,0.830177,5.08337e-17,396.706,1147.58)">
                <path d="M363.548,176.129L419.516,288.065L307.581,288.065L363.548,176.129Z" style="fill:rgb(255,0,0);"/>
            </g>
            <g transform="matrix(9.78953e-17,-1.59875,0.828607,5.07375e-17,327.982,1147.58)">
                <path d="M363.548,176.129L419.516,288.065L307.581,288.065L363.548,176.129Z" style="fill:rgb(255,0,0);"/>
            </g>
        </g>
    </g>
</svg>
